<?xml version="1.0" encoding="UTF-8"?>
<!DOCTYPE svg PUBLIC "-//W3C//DTD SVG 1.1//EN" "http://www.w3.org/Graphics/SVG/1.1/DTD/svg11.dtd">
<svg xmlns="http://www.w3.org/2000/svg" version="1.1" width="500px" height="500px" style="shape-rendering:geometricPrecision; text-rendering:geometricPrecision; image-rendering:optimizeQuality; fill-rule:evenodd; clip-rule:evenodd" xmlns:xlink="http://www.w3.org/1999/xlink">
<g><path style="opacity:0.955" fill="#333332" d="M 283.5,233.5 C 283.167,233.5 282.833,233.5 282.5,233.5C 281.833,232.167 281.167,232.167 280.5,233.5C 279.833,233.5 279.167,233.5 278.5,233.5C 277.833,232.167 277.167,232.167 276.5,233.5C 276.167,233.5 275.833,233.5 275.5,233.5C 274.518,232.859 273.518,232.193 272.5,231.5C 267.216,222.38 261.716,213.38 256,204.5C 252.439,200.14 247.939,197.474 242.5,196.5C 242.5,194.833 242.5,193.167 242.5,191.5C 249.508,191.334 256.508,191.5 263.5,192C 271.833,205 280.167,218 288.5,231C 287.24,232.113 286.073,232.28 285,231.5C 284.722,232.416 284.222,233.082 283.5,233.5 Z"/></g>
<g><path style="opacity:0.985" fill="#313130" d="M 316.5,191.5 C 323.5,191.5 330.5,191.5 337.5,191.5C 337.302,204.675 337.635,217.842 338.5,231C 337.4,232.023 336.067,232.523 334.5,232.5C 330.868,231.754 327.202,231.421 323.5,231.5C 323.666,221.161 323.5,210.828 323,200.5C 321.727,198.428 319.893,197.095 317.5,196.5C 316.548,194.955 316.215,193.288 316.5,191.5 Z"/></g>
<g><path style="opacity:0.998" fill="#373636" d="M 139.5,211.5 C 139.539,210.417 139.873,209.417 140.5,208.5C 139.024,206.58 138.024,204.413 137.5,202C 136.902,200.699 135.902,199.865 134.5,199.5C 133.353,197.235 133.186,194.902 134,192.5C 138.165,191.391 142.332,190.558 146.5,190C 148.041,191.579 149.208,193.413 150,195.5C 154.068,207.205 158.235,218.871 162.5,230.5C 159.167,231.167 155.833,231.833 152.5,232.5C 151.216,233.63 150.383,234.963 150,236.5C 143.746,234.634 141.913,236.801 144.5,243C 147.025,243.896 149.192,243.396 151,241.5C 151.635,244.548 150.301,246.215 147,246.5C 141.412,245.324 139.412,241.99 141,236.5C 143.433,234.374 146.266,233.041 149.5,232.5C 146.321,226.467 143.821,220.133 142,213.5C 141.583,212.244 140.75,211.577 139.5,211.5 Z"/></g>
<g><path style="opacity:0.137" fill="#d1cfce" d="M 341.5,191.5 C 341.5,193.167 341.5,194.833 341.5,196.5C 342.833,196.5 344.167,196.5 345.5,196.5C 344.081,197.451 342.415,197.784 340.5,197.5C 340.205,195.265 340.539,193.265 341.5,191.5 Z"/></g>
<g><path style="opacity:0.995" fill="#383838" d="M 341.5,191.5 C 368.966,190.799 382.133,204.132 381,231.5C 375.941,231.735 370.775,231.735 365.5,231.5C 365.996,222.13 364.496,213.13 361,204.5C 357.085,199.421 351.918,196.754 345.5,196.5C 344.167,196.5 342.833,196.5 341.5,196.5C 341.5,194.833 341.5,193.167 341.5,191.5 Z"/></g>
<g><path style="opacity:0.902" fill="#323130" d="M 287.5,191.5 C 295.167,191.5 302.833,191.5 310.5,191.5C 310.657,192.873 310.49,194.207 310,195.5C 307.538,196.65 305.204,197.983 303,199.5C 302.667,210.167 302.333,220.833 302,231.5C 300.933,232.191 299.766,232.691 298.5,233C 298.328,236.751 298.662,240.584 299.5,244.5C 298.167,245.833 296.833,245.833 295.5,244.5C 297.015,240.052 296.681,235.552 294.5,231C 295.651,221.244 295.818,211.411 295,201.5C 293.493,198.574 291.159,196.574 288,195.5C 287.51,194.207 287.343,192.873 287.5,191.5 Z"/></g>
<g><path style="opacity:0.882" fill="#383737" d="M 139.5,211.5 C 138.662,219.187 136.162,226.187 132,232.5C 130.68,232.201 129.18,232.034 127.5,232C 126.978,231.439 126.645,230.772 126.5,230C 129.445,221.365 132.611,212.865 136,204.5C 137.276,206.858 138.442,209.192 139.5,211.5 Z"/></g>
<g><path style="opacity:0.982" fill="#3f3d3d" d="M 198.5,204.5 C 199.376,204.369 200.043,204.702 200.5,205.5C 202.567,208.94 203.4,212.607 203,216.5C 200.853,221.4 198.853,226.4 197,231.5C 195.184,232.329 193.351,233.163 191.5,234C 193,236.167 194.5,238.333 196,240.5C 196.687,238.432 196.52,236.432 195.5,234.5C 196.365,233.417 197.365,233.251 198.5,234C 197.864,237.79 197.197,241.623 196.5,245.5C 195.201,244.91 194.368,243.91 194,242.5C 193.333,243.833 192.667,243.833 192,242.5C 191.667,241.167 191.333,239.833 191,238.5C 190.313,240.568 190.48,242.568 191.5,244.5C 190.675,245.386 189.675,245.719 188.5,245.5C 188.334,241.486 188.501,237.486 189,233.5C 192.323,223.873 195.489,214.206 198.5,204.5 Z"/></g>
<g><path style="opacity:1" fill="#343433" d="M 220.5,233.5 C 220.167,233.5 219.833,233.5 219.5,233.5C 219.03,232.307 218.03,231.64 216.5,231.5C 214.796,232.068 213.296,232.068 212,231.5C 208.333,221.5 204.667,211.5 201,201.5C 196.141,199.429 195.307,196.262 198.5,192C 201.919,191.479 205.252,190.645 208.5,189.5C 209.5,190.167 210.5,190.833 211.5,191.5C 216.763,204.621 221.429,217.955 225.5,231.5C 223.486,231.392 221.82,232.058 220.5,233.5 Z"/></g>
<g><path style="opacity:1" fill="#3e3d3c" d="M 249.5,202.5 C 252.721,203.882 255.221,206.215 257,209.5C 257.5,217.159 257.666,224.826 257.5,232.5C 254.881,232.768 252.381,232.435 250,231.5C 249.5,221.839 249.334,212.172 249.5,202.5 Z"/></g>
<g><path style="opacity:0.188" fill="#6a6562" d="M 166.5,233.5 C 175.61,233.145 177.944,236.978 173.5,245C 168.146,247.153 164.813,245.32 163.5,239.5C 163.984,237.199 164.984,235.199 166.5,233.5 Z M 167.5,235.5 C 169.124,235.36 170.29,236.027 171,237.5C 171.333,237.167 171.667,236.833 172,236.5C 174.542,241.776 173.042,243.776 167.5,242.5C 166.178,240.135 166.178,237.802 167.5,235.5 Z"/></g>
<g><path style="opacity:0.173" fill="#888683" d="M 238.5,240.5 C 238.918,239.778 239.584,239.278 240.5,239C 238.942,238.79 237.609,238.29 236.5,237.5C 237.833,237.167 237.833,236.833 236.5,236.5C 236.5,235.167 235.833,234.5 234.5,234.5C 236.361,233.493 239.028,233.16 242.5,233.5C 242.5,234.5 242.5,235.5 242.5,236.5C 238.162,236.622 237.828,236.955 241.5,237.5C 241.5,238.5 241.5,239.5 241.5,240.5C 240.5,240.5 239.5,240.5 238.5,240.5 Z"/></g>
<g><path style="opacity:0.655" fill="#554e4a" d="M 314.5,233.5 C 321.665,232.497 324.498,235.497 323,242.5C 319.501,247.723 316.001,247.723 312.5,242.5C 311.092,239.054 311.759,236.054 314.5,233.5 Z M 315.5,235.5 C 320.365,235.684 322.032,238.018 320.5,242.5C 318.602,243.734 316.935,243.401 315.5,241.5C 314.306,239.484 314.306,237.484 315.5,235.5 Z"/></g>
<g><path style="opacity:0.418" fill="#312f2d" d="M 336.5,233.5 C 339.815,234.416 342.315,236.416 344,239.5C 344.825,237.299 344.325,235.466 342.5,234C 343.833,233.333 345.167,233.333 346.5,234C 345.703,237.745 345.203,241.579 345,245.5C 343.494,243.826 341.661,242.826 339.5,242.5C 339.5,243.5 339.5,244.5 339.5,245.5C 338.5,245.5 337.5,245.5 336.5,245.5C 336.5,241.5 336.5,237.5 336.5,233.5 Z"/></g>
<g><path style="opacity:0.376" fill="#171513" d="M 234.5,235.5 C 234.5,235.167 234.5,234.833 234.5,234.5C 235.833,234.5 236.5,235.167 236.5,236.5C 236.5,236.833 236.5,237.167 236.5,237.5C 237.609,238.29 238.942,238.79 240.5,239C 239.584,239.278 238.918,239.778 238.5,240.5C 239.167,241.5 239.833,242.5 240.5,243.5C 239.5,243.5 238.5,243.5 237.5,243.5C 237.5,243.167 237.5,242.833 237.5,242.5C 237.5,241.833 237.5,241.167 237.5,240.5C 237.167,239.167 236.833,239.167 236.5,240.5C 235.833,238.833 235.167,237.167 234.5,235.5 Z"/></g>
<g><path style="opacity:0.42" fill="#666360" d="M 258.5,243.5 C 258.38,244.586 257.713,245.253 256.5,245.5C 255.833,245.167 255.167,244.833 254.5,244.5C 255.803,240.968 255.803,237.468 254.5,234C 257.669,233.022 260.503,233.522 263,235.5C 263.698,239.651 261.865,241.984 257.5,242.5C 257.624,243.107 257.957,243.44 258.5,243.5 Z M 257.5,235.5 C 259.912,235.694 260.912,237.027 260.5,239.5C 259.5,239.5 258.5,239.5 257.5,239.5C 257.5,238.167 257.5,236.833 257.5,235.5 Z"/></g>
<g><path style="opacity:0.425" fill="#7a7674" d="M 275.5,233.5 C 275.833,233.5 276.167,233.5 276.5,233.5C 277.167,233.5 277.833,233.5 278.5,233.5C 279.167,233.5 279.833,233.5 280.5,233.5C 281.167,233.5 281.833,233.5 282.5,233.5C 282.833,233.5 283.167,233.5 283.5,233.5C 284.869,236.131 284.202,236.798 281.5,235.5C 280.252,238.506 280.252,241.506 281.5,244.5C 280.167,245.833 278.833,245.833 277.5,244.5C 278.077,242.894 278.41,241.228 278.5,239.5C 277.901,236.788 276.901,234.788 275.5,233.5 Z"/></g>
<g><path style="opacity:0.161" fill="#5e5b59" d="M 219.5,233.5 C 219.833,233.5 220.167,233.5 220.5,233.5C 221.562,234.575 221.562,235.575 220.5,236.5C 213.892,234.461 211.892,236.461 214.5,242.5C 216.736,243.812 218.736,243.479 220.5,241.5C 221.714,244.493 220.548,246.16 217,246.5C 210.772,244.478 209.272,240.645 212.5,235C 214.677,233.798 217.011,233.298 219.5,233.5 Z"/></g>
<g><path style="opacity:0.004" fill="#000000" d="M 258.5,242.5 C 259.833,243.167 259.833,243.167 258.5,242.5 Z"/></g>
<g><path style="opacity:0.612" fill="#676562" d="M 234.5,235.5 C 235.167,237.167 235.833,238.833 236.5,240.5C 236.833,240.5 237.167,240.5 237.5,240.5C 237.5,241.167 237.5,241.833 237.5,242.5C 236.167,242.833 236.167,243.167 237.5,243.5C 238.5,243.5 239.5,243.5 240.5,243.5C 242.203,242.34 242.869,243.007 242.5,245.5C 239.428,245.817 236.428,245.484 233.5,244.5C 234.407,241.579 234.74,238.579 234.5,235.5 Z"/></g>
<g><path style="opacity:1" fill="#343333" d="M 156.5,249.5 C 160.457,249.823 164.29,249.823 168,249.5C 170.106,251.377 171.439,253.71 172,256.5C 174.855,260.064 177.855,260.064 181,256.5C 181.618,251.197 184.452,249.03 189.5,250C 190.444,252.719 190.777,255.552 190.5,258.5C 195.383,258.419 197.716,260.753 197.5,265.5C 181.833,265.5 166.167,265.5 150.5,265.5C 150.67,264.178 150.337,263.011 149.5,262C 151.754,260.623 153.92,259.123 156,257.5C 156.687,255.08 156.187,252.913 154.5,251C 155.416,250.722 156.082,250.222 156.5,249.5 Z"/></g>
<g><path style="opacity:1" fill="#343433" d="M 323.5,249.5 C 328.099,249.2 332.599,249.533 337,250.5C 337.499,255.489 337.666,260.489 337.5,265.5C 329.992,265.962 322.658,265.462 315.5,264C 317.299,260.868 319.799,258.368 323,256.5C 323.497,254.19 323.663,251.857 323.5,249.5 Z"/></g>
<g><path style="opacity:0.971" fill="#3a3938" d="M 286.5,249.5 C 291.194,249.456 295.861,249.79 300.5,250.5C 301.192,251.025 301.692,251.692 302,252.5C 302.499,256.821 302.666,261.154 302.5,265.5C 299.482,265.665 296.482,265.498 293.5,265C 290.746,260.154 287.746,255.487 284.5,251C 285.416,250.722 286.082,250.222 286.5,249.5 Z"/></g>
<g><path style="opacity:1" fill="#333332" d="M 265.5,261.5 C 264.508,263.026 263.008,263.693 261,263.5C 257.303,263.194 253.47,263.028 249.5,263C 250.696,262.346 250.696,261.846 249.5,261.5C 248.572,263.335 247.406,263.668 246,262.5C 235.423,264.463 224.59,265.13 213.5,264.5C 212.316,263.312 212.316,262.145 213.5,261C 215.65,259.589 217.984,258.755 220.5,258.5C 220.489,256.453 220.156,254.453 219.5,252.5C 219.556,251.263 220.056,250.263 221,249.5C 224.935,249.358 228.769,249.525 232.5,250C 233.961,252.421 235.294,254.921 236.5,257.5C 238.49,258.498 240.49,259.498 242.5,260.5C 244.5,259.5 246.5,258.5 248.5,257.5C 249.214,254.973 249.88,252.473 250.5,250C 252.521,249.86 254.355,249.693 256,249.5C 257.122,252.076 258.122,254.743 259,257.5C 261.584,258.269 263.75,259.602 265.5,261.5 Z"/></g>
<g><path style="opacity:0.992" fill="#3d3c3c" d="M 362.5,249.5 C 376.197,247.355 378.197,250.521 368.5,259C 359.942,264.078 350.775,265.911 341,264.5C 340.506,262.866 340.34,261.199 340.5,259.5C 350.326,261.172 357.66,257.839 362.5,249.5 Z"/></g>
<g><path style="opacity:1" fill="#343333" d="M 120.5,249.5 C 122.792,249.244 124.959,249.577 127,250.5C 126.745,253.082 126.578,255.748 126.5,258.5C 128.937,258.756 131.271,259.423 133.5,260.5C 134.747,262.006 134.747,263.506 133.5,265C 125.92,265.813 118.42,265.647 111,264.5C 110.333,263.167 110.333,261.833 111,260.5C 113.339,259.443 115.505,258.11 117.5,256.5C 118.352,254.076 119.352,251.742 120.5,249.5 Z"/></g>
<g><path style="opacity:0.011" fill="#0e0d0c" d="M 265.5,261.5 C 266.791,262.542 266.791,263.708 265.5,265C 247.995,265.829 230.662,265.662 213.5,264.5C 224.59,265.13 235.423,264.463 246,262.5C 247.406,263.668 248.572,263.335 249.5,261.5C 250.696,261.846 250.696,262.346 249.5,263C 253.47,263.028 257.303,263.194 261,263.5C 263.008,263.693 264.508,263.026 265.5,261.5 Z"/></g>
<g><path style="opacity:0.22" fill="#736d6b" d="M 215.5,271.5 C 216.966,272.347 217.8,273.68 218,275.5C 220.548,275.286 223.048,275.286 225.5,275.5C 224.761,275.369 224.094,275.536 223.5,276C 226.186,279.476 225.853,279.976 222.5,277.5C 221.719,278.729 221.219,280.062 221,281.5C 220.667,279.833 220.333,278.167 220,276.5C 219.617,277.056 219.117,277.389 218.5,277.5C 217.58,276.933 217.246,277.599 217.5,279.5C 216.883,279.611 216.383,279.944 216,280.5C 215.502,277.518 215.335,274.518 215.5,271.5 Z"/></g>
<g><path style="opacity:0.006" fill="#0e0c0c" d="M 242.5,273.5 C 243.605,274.6 244.938,275.267 246.5,275.5C 245.494,276.396 245.494,277.062 246.5,277.5C 246.5,278.833 246.5,280.167 246.5,281.5C 246.5,282.167 246.5,282.833 246.5,283.5C 245.778,283.082 245.278,282.416 245,281.5C 244.601,281.728 244.435,282.062 244.5,282.5C 243.167,282.167 241.833,281.833 240.5,281.5C 241.11,280.609 241.443,279.609 241.5,278.5C 242.833,277.833 242.833,277.167 241.5,276.5C 241.263,275.209 241.596,274.209 242.5,273.5 Z"/></g>
<g><path style="opacity:0.149" fill="#706e6b" d="M 254.5,272.5 C 255.947,271.115 256.947,271.448 257.5,273.5C 257.665,276.518 257.498,279.518 257,282.5C 256.73,279.776 256.23,277.109 255.5,274.5C 256.981,273.056 256.648,272.389 254.5,272.5 Z"/></g>
<g><path style="opacity:0.137" fill="#282624" d="M 254.5,272.5 C 256.648,272.389 256.981,273.056 255.5,274.5C 256.23,277.109 256.73,279.776 257,282.5C 257.498,279.518 257.665,276.518 257.5,273.5C 258.261,274.391 259.261,275.058 260.5,275.5C 268.953,275.6 277.62,275.267 286.5,274.5C 286.912,276.973 285.912,278.306 283.5,278.5C 283.279,275.903 282.779,275.903 282,278.5C 280.997,276.065 280.497,276.398 280.5,279.5C 280.667,280.5 280.833,281.5 281,282.5C 281.77,281.402 282.603,281.402 283.5,282.5C 282.122,283.234 280.622,283.901 279,284.5C 277.073,284.239 275.073,284.239 273,284.5C 272.228,284.355 271.561,284.022 271,283.5C 270.667,281.833 270.333,280.167 270,278.5C 269.722,279.416 269.222,280.082 268.5,280.5C 268.021,282.844 266.521,284.178 264,284.5C 261.406,284.239 258.74,284.239 256,284.5C 254.885,283 254.052,281.333 253.5,279.5C 252.311,278.571 250.978,278.238 249.5,278.5C 249.66,280.199 249.494,281.866 249,283.5C 248.23,284.598 247.397,284.598 246.5,283.5C 246.5,282.833 246.5,282.167 246.5,281.5C 247.833,280.167 247.833,278.833 246.5,277.5C 245.494,277.062 245.494,276.396 246.5,275.5C 248.746,274.79 251.08,274.29 253.5,274C 254.056,273.617 254.389,273.117 254.5,272.5 Z M 268.5,280.5 C 266.888,281.452 265.388,281.786 264,281.5C 263.251,280.365 263.417,279.365 264.5,278.5C 266.026,278.994 267.359,279.661 268.5,280.5 Z"/></g>
<g><path style="opacity:0.725" fill="#746f6e" d="M 283.5,278.5 C 283.5,279.833 283.5,281.167 283.5,282.5C 282.603,281.402 281.77,281.402 281,282.5C 280.833,281.5 280.667,280.5 280.5,279.5C 280.497,276.398 280.997,276.065 282,278.5C 282.779,275.903 283.279,275.903 283.5,278.5 Z"/></g>
<g><path style="opacity:0.665" fill="#211a18" d="M 215.5,271.5 C 215.335,274.518 215.502,277.518 216,280.5C 216.383,279.944 216.883,279.611 217.5,279.5C 218.338,279.158 218.672,278.492 218.5,277.5C 219.117,277.389 219.617,277.056 220,276.5C 220.333,278.167 220.667,279.833 221,281.5C 221.219,280.062 221.719,278.729 222.5,277.5C 225.853,279.976 226.186,279.476 223.5,276C 224.094,275.536 224.761,275.369 225.5,275.5C 227.484,275.617 229.15,274.95 230.5,273.5C 231.931,273.977 233.264,274.643 234.5,275.5C 234.043,276.298 233.376,276.631 232.5,276.5C 231.102,279.007 231.436,281.34 233.5,283.5C 226.894,283.698 220.227,283.865 213.5,284C 213.743,280.309 213.41,276.476 212.5,272.5C 213.325,271.614 214.325,271.281 215.5,271.5 Z"/></g>
<g><path style="opacity:0.016" fill="#51504f" d="M 242.5,273.5 C 241.596,274.209 241.263,275.209 241.5,276.5C 242.833,277.167 242.833,277.833 241.5,278.5C 237.995,278.694 237.662,279.694 240.5,281.5C 241.833,281.833 243.167,282.167 244.5,282.5C 241.063,284.898 237.896,284.898 235,282.5C 234.617,283.056 234.117,283.389 233.5,283.5C 231.436,281.34 231.102,279.007 232.5,276.5C 232.491,278.308 232.991,279.975 234,281.5C 235.738,277.726 238.071,274.393 241,271.5C 242.03,271.836 242.53,272.503 242.5,273.5 Z"/></g>
</svg>
